<?xml version="1.0" encoding="UTF-8"?>
<svg id="Layer_2" data-name="Layer 2" xmlns="http://www.w3.org/2000/svg" viewBox="0 0 147.8 58.12">
  <defs>
    <style>
      .cls-1 {
        fill: #231f20;
      }
    </style>
  </defs>
  <g id="Layer_1-2" data-name="Layer 1">
    <g>
      <polygon class="cls-1" points="23.16 13.83 19.67 13.83 2.74 30.85 2.74 0 0 0 0 44.23 2.74 44.23 2.74 34.41 9.15 27.97 21.56 44.23 24.96 44.23 11.13 25.95 23.16 13.83"/>
      <path class="cls-1" d="m35.51,13.2c-8.45,0-13.26,5.63-13.26,12.65v6.35c0,7.02,4.81,12.65,13.26,12.65,7.97,0,12.78-4.66,12.78-9.28v-1.01h-2.74v.53c0,3.8-3.73,7.26-10.05,7.26-6.79,0-10.52-4.43-10.52-10.63v-1.73h23.78v-4.14c0-7.02-4.81-12.65-13.26-12.65Zm10.52,14.43h-21.04v-1.3c0-6.2,3.73-10.63,10.52-10.63s10.52,4.43,10.52,10.63v1.3Z"/>
      <path class="cls-1" d="m63.1,13.2c-8.45,0-13.26,5.63-13.26,12.65v6.35c0,7.02,4.81,12.65,13.26,12.65,7.97,0,12.79-4.66,12.79-9.28v-1.01h-2.74v.53c0,3.8-3.73,7.26-10.05,7.26-6.79,0-10.52-4.43-10.52-10.63v-1.73h23.78v-4.14c0-7.02-4.81-12.65-13.26-12.65Zm10.52,14.43h-21.04v-1.3c0-6.2,3.73-10.63,10.52-10.63s10.52,4.43,10.52,10.63v1.3Z"/>
      <path class="cls-1" d="m90.41,13.83h-12.5v44.28h2.74v-13.84h9.77c8.73,0,13.07-6.45,13.07-14.96s-3.87-15.48-13.07-15.48Zm.71,27.94h-10.47v-25.44h10.47c6.42,0,9.62,5.96,9.62,12.98s-3.4,12.46-9.62,12.46Z"/>
      <path class="cls-1" d="m117.33,13.2c-8.45,0-13.26,5.63-13.26,12.65v6.35c0,7.02,4.81,12.65,13.26,12.65,7.97,0,12.78-4.66,12.78-9.28v-1.01h-2.74v.53c0,3.8-3.73,7.26-10.05,7.26-6.79,0-10.52-4.43-10.52-10.63v-1.73h23.78v-4.14c0-7.02-4.81-12.65-13.26-12.65Zm10.52,14.43h-21.04v-1.3c0-6.2,3.73-10.63,10.52-10.63s10.52,4.43,10.52,10.63v1.3Z"/>
      <path class="cls-1" d="m134.97,21.04v-7.21h-2.83v30.4h2.83v-19.33c1.98-4.86,6.65-8.85,12.83-8.47v-2.69c-5.8-.38-10.8,3.03-12.83,7.31Z"/>
      <path class="cls-1" d="m90.05,24.04c-1.85,0-3.35,1.5-3.35,3.35,0,1.36.81,2.51,1.97,3.04v3.05h2.76v-3.05c1.16-.53,1.97-1.68,1.97-3.04,0-1.85-1.5-3.35-3.35-3.35Z"/>
    </g>
  </g>
</svg>