<svg width="current" height="current" viewBox="0 0 12 12" fill="none" xmlns="http://www.w3.org/2000/svg">
<path d="M4.9375 0.875C6.01494 0.875 7.04825 1.30301 7.81012 2.06488C8.57199 2.82675 9 3.86006 9 4.9375C9 5.94375 8.63125 6.86875 8.025 7.58125L8.19375 7.75H8.6875L11.8125 10.875L10.875 11.8125L7.75 8.6875V8.19375L7.58125 8.025C6.84409 8.65423 5.90669 8.99994 4.9375 9C3.86006 9 2.82675 8.57199 2.06488 7.81012C1.30301 7.04825 0.875 6.01494 0.875 4.9375C0.875 3.86006 1.30301 2.82675 2.06488 2.06488C2.82675 1.30301 3.86006 0.875 4.9375 0.875ZM4.9375 2.125C3.375 2.125 2.125 3.375 2.125 4.9375C2.125 6.5 3.375 7.75 4.9375 7.75C6.5 7.75 7.75 6.5 7.75 4.9375C7.75 3.375 6.5 2.125 4.9375 2.125Z" fill="#56CFE1"/>
</svg>
