<svg width="8" height="5" viewBox="0 0 8 5" fill="none" xmlns="http://www.w3.org/2000/svg">
<path d="M4.47286 4.19371L7.53286 1.13371C7.59458 1.07199 7.64354 0.998714 7.67694 0.918071C7.71035 0.837429 7.72754 0.750996 7.72754 0.663709C7.72754 0.576422 7.71035 0.48999 7.67694 0.409347C7.64354 0.328704 7.59458 0.255431 7.53286 0.193709C7.47114 0.131988 7.39786 0.0830283 7.31722 0.0496249C7.23658 0.0162215 7.15015 -0.000971317 7.06286 -0.000971317C6.97557 -0.000971317 6.88914 0.0162215 6.8085 0.0496249C6.72785 0.0830283 6.65458 0.131988 6.59286 0.193709L3.99953 2.78038L1.41286 0.193709C1.35114 0.131988 1.27786 0.0830283 1.19722 0.0496249C1.11658 0.0162215 1.03015 -0.000971317 0.94286 -0.000971317C0.855572 -0.000971317 0.769139 0.0162215 0.688497 0.0496249C0.607854 0.0830283 0.534579 0.131988 0.472858 0.193709C0.411137 0.255431 0.362178 0.328704 0.328774 0.409347C0.295371 0.48999 0.278179 0.576422 0.278179 0.663709C0.278179 0.750996 0.295371 0.837429 0.328774 0.918071C0.362178 0.998714 0.411137 1.07199 0.472858 1.13371L3.53286 4.19371C3.59453 4.25551 3.66779 4.30454 3.74844 4.338C3.82909 4.37145 3.91555 4.38867 4.00286 4.38867C4.09017 4.38867 4.17663 4.37145 4.25727 4.338C4.33792 4.30454 4.41118 4.25551 4.47286 4.19371Z" fill="white"/>
</svg>
